<svg xmlns="http://www.w3.org/2000/svg" width="94.5" height="94.5" viewBox="0 0 94.5 94.5">
  <path d="M84.762 41.232c-4.92 3.53-11.826 8.222-14.94 8.222-.618 0-.816-.186-.96-.36-1.272-1.57-.928-7.067 1.025-16.336.193-.918-.29-1.84-1.152-2.204-.86-.365-1.86-.066-2.383.71-6.72 10.02-9.8 12.123-11.194 12.123-1.98 0-3.99-5.692-5.986-16.92-.16-.896-.915-1.55-1.813-1.6v-.012c-.02 0-.04.004-.06.004-.02 0-.04-.008-.058-.008v.01c-.895.053-1.65.706-1.81 1.602-2 11.228-4.012 16.92-5.99 16.92-1.395 0-4.47-2.103-11.19-12.123-.522-.775-1.522-1.074-2.385-.71-.863.364-1.347 1.287-1.153 2.205 1.952 9.27 2.3 14.767 1.024 16.335-.14.177-.34.36-.958.36-3.115 0-10.02-4.69-14.943-8.22-.778-.56-1.845-.47-2.52.21-.676.674-.765 1.74-.207 2.52 11.253 14.392 9.135 30.91 9.135 30.91-.043.23-.065.463-.065.71 0 4.057 5.682 5.663 10.63 6.61 5.454 1.044 12.636 1.626 20.267 1.646v.002c.073 0 .147 0 .22-.004.073.002.146.002.22.002v-.003c7.63-.02 14.813-.603 20.264-1.647 4.95-.946 10.634-2.555 10.634-6.61 0-.246-.023-.48-.064-.71 0 0-2.117-16.52 9.134-30.91.56-.777.472-1.845-.204-2.52-.68-.674-1.744-.766-2.524-.208zm-37.24 37.006h-.015c-.07 0-.137.003-.206.003h-.216c-12.126-.034-20.143-1.445-23.68-2.656 3.537-1.212 11.554-2.623 23.68-2.657h.438c12.127.034 20.143 1.445 23.68 2.658-3.535 1.212-11.55 2.623-23.677 2.658z M41.388 16.573 A5.914 5.914 0 1 0 53.216 16.573 A5.914 5.914 0 1 0 41.388 16.573 Z M17.411 23.718 A4.928 4.928 0 1 0 27.267 23.718 A4.928 4.928 0 1 0 17.411 23.718 Z M66.927 23.718 A4.928 4.928 0 1 0 76.783 23.718 A4.928 4.928 0 1 0 66.927 23.718 Z M0.000 37.759 A3.322 3.322 0 1 0 6.644 37.759 A3.322 3.322 0 1 0 0.000 37.759 Z M87.856 37.759 A3.322 3.322 0 1 0 94.500 37.759 A3.322 3.322 0 1 0 87.856 37.759 Z"/>
  
  
  
  
  
</svg>